<svg width="502" height="502" viewBox="0 0 502 502" fill="none" xmlns="http://www.w3.org/2000/svg">
<rect x="49" y="150.946" width="200" height="100" fill="#4B61CF"/>
<mask id="mask0_101_29" style="mask-type:alpha" maskUnits="userSpaceOnUse" x="145" y="50" width="316" height="317">
<rect x="249.68" y="50" width="300.828" height="145.453" transform="rotate(45.5 249.68 50)" fill="white"/>
</mask>
<g mask="url(#mask0_101_29)">
<rect x="249" y="50.9456" width="200" height="200" fill="#4B61CF"/>
</g>
<mask id="mask1_101_29" style="mask-type:alpha" maskUnits="userSpaceOnUse" x="30" y="252" width="222" height="107">
<rect x="30" y="252.946" width="222" height="106" fill="white"/>
</mask>
<g mask="url(#mask1_101_29)">
<circle cx="249" cy="250.946" r="100" fill="#4B61CF"/>
</g>
<path d="M251.061 0.884896C250.475 0.29911 249.525 0.29911 248.939 0.884896L239.393 10.4308C238.808 11.0166 238.808 11.9664 239.393 12.5522C239.979 13.1379 240.929 13.1379 241.515 12.5522L250 4.06688L258.485 12.5522C259.071 13.1379 260.021 13.1379 260.607 12.5522C261.192 11.9664 261.192 11.0166 260.607 10.4308L251.061 0.884896ZM251.5 501.946L251.5 1.94556H248.5L248.5 501.946H251.5Z" fill="white"/>
<path d="M501.061 253.006C501.646 252.42 501.646 251.471 501.061 250.885L491.515 241.339C490.929 240.753 489.979 240.753 489.393 241.339C488.808 241.925 488.808 242.874 489.393 243.46L497.879 251.946L489.393 260.431C488.808 261.017 488.808 261.966 489.393 262.552C489.979 263.138 490.929 263.138 491.515 262.552L501.061 253.006ZM0 253.446H500V250.446H0L0 253.446Z" fill="white"/>
<line x1="236" y1="150.446" x2="265" y2="150.446" stroke="white" stroke-width="3"/>
<line x1="236" y1="450.446" x2="265" y2="450.446" stroke="white" stroke-width="3"/>
<line x1="236" y1="350.446" x2="265" y2="350.446" stroke="white" stroke-width="3"/>
<line x1="236" y1="350.446" x2="265" y2="350.446" stroke="white" stroke-width="3"/>
<line x1="236" y1="50.4456" x2="265" y2="50.4456" stroke="white" stroke-width="3"/>
<line x1="348.5" y1="266.446" x2="348.5" y2="237.446" stroke="white" stroke-width="3"/>
<line x1="448.5" y1="266.446" x2="448.5" y2="237.446" stroke="white" stroke-width="3"/>
<line x1="148.5" y1="266.446" x2="148.5" y2="237.446" stroke="white" stroke-width="3"/>
<line x1="48.5" y1="266.446" x2="48.5" y2="237.446" stroke="white" stroke-width="3"/>
<path d="M269.938 56.9456V40.9456H275.344C276.594 40.9456 277.62 41.1591 278.422 41.5862C279.224 42.0081 279.818 42.5888 280.203 43.3284C280.589 44.068 280.781 44.9091 280.781 45.8518C280.781 46.7945 280.589 47.6305 280.203 48.3596C279.818 49.0888 279.227 49.6617 278.43 50.0784C277.633 50.4898 276.615 50.6956 275.375 50.6956H271V48.9456H275.313C276.167 48.9456 276.854 48.8206 277.375 48.5706C277.901 48.3206 278.281 47.9664 278.516 47.5081C278.755 47.0445 278.875 46.4924 278.875 45.8518C278.875 45.2112 278.755 44.6513 278.516 44.1721C278.276 43.693 277.893 43.3232 277.367 43.0627C276.841 42.7971 276.146 42.6643 275.281 42.6643H271.875V56.9456H269.938ZM277.469 49.7581L281.406 56.9456H279.156L275.281 49.7581H277.469Z" fill="white"/>
<path d="M269.938 158.946V142.946H275.344C276.594 142.946 277.62 143.159 278.422 143.586C279.224 144.008 279.818 144.589 280.203 145.328C280.589 146.068 280.781 146.909 280.781 147.852C280.781 148.795 280.589 149.63 280.203 150.36C279.818 151.089 279.227 151.662 278.43 152.078C277.633 152.49 276.615 152.696 275.375 152.696H271V150.946H275.313C276.167 150.946 276.854 150.821 277.375 150.571C277.901 150.321 278.281 149.966 278.516 149.508C278.755 149.045 278.875 148.492 278.875 147.852C278.875 147.211 278.755 146.651 278.516 146.172C278.276 145.693 277.893 145.323 277.367 145.063C276.841 144.797 276.146 144.664 275.281 144.664H271.875V158.946H269.938ZM277.469 151.758L281.406 158.946H279.156L275.281 151.758H277.469ZM289.416 142.196L284.26 161.352H282.572L287.729 142.196H289.416ZM291.57 158.946V157.539L296.852 151.758C297.471 151.081 297.982 150.492 298.383 149.992C298.784 149.487 299.081 149.013 299.273 148.571C299.471 148.123 299.57 147.654 299.57 147.164C299.57 146.602 299.435 146.115 299.164 145.703C298.898 145.292 298.534 144.974 298.07 144.75C297.607 144.526 297.086 144.414 296.508 144.414C295.893 144.414 295.357 144.542 294.898 144.797C294.445 145.047 294.094 145.399 293.844 145.852C293.599 146.305 293.477 146.836 293.477 147.446H291.633C291.633 146.508 291.849 145.685 292.281 144.977C292.714 144.268 293.302 143.716 294.047 143.321C294.797 142.925 295.638 142.727 296.57 142.727C297.508 142.727 298.339 142.925 299.063 143.321C299.786 143.716 300.354 144.25 300.766 144.922C301.177 145.594 301.383 146.341 301.383 147.164C301.383 147.753 301.276 148.328 301.063 148.891C300.854 149.448 300.49 150.071 299.969 150.758C299.453 151.44 298.737 152.274 297.82 153.258L294.227 157.102V157.227H301.664V158.946H291.57Z" fill="white"/>
<path d="M330.938 287.946V271.946H336.344C337.594 271.946 338.62 272.159 339.422 272.586C340.224 273.008 340.818 273.589 341.203 274.328C341.589 275.068 341.781 275.909 341.781 276.852C341.781 277.795 341.589 278.63 341.203 279.36C340.818 280.089 340.227 280.662 339.43 281.078C338.633 281.49 337.615 281.696 336.375 281.696H332V279.946H336.313C337.167 279.946 337.854 279.821 338.375 279.571C338.901 279.321 339.281 278.966 339.516 278.508C339.755 278.045 339.875 277.492 339.875 276.852C339.875 276.211 339.755 275.651 339.516 275.172C339.276 274.693 338.893 274.323 338.367 274.063C337.841 273.797 337.146 273.664 336.281 273.664H332.875V287.946H330.938ZM338.469 280.758L342.406 287.946H340.156L336.281 280.758H338.469ZM350.416 271.196L345.26 290.352H343.572L348.729 271.196H350.416ZM352.57 287.946V286.539L357.852 280.758C358.471 280.081 358.982 279.492 359.383 278.992C359.784 278.487 360.081 278.013 360.273 277.571C360.471 277.123 360.57 276.654 360.57 276.164C360.57 275.602 360.435 275.115 360.164 274.703C359.898 274.292 359.534 273.974 359.07 273.75C358.607 273.526 358.086 273.414 357.508 273.414C356.893 273.414 356.357 273.542 355.898 273.797C355.445 274.047 355.094 274.399 354.844 274.852C354.599 275.305 354.477 275.836 354.477 276.446H352.633C352.633 275.508 352.849 274.685 353.281 273.977C353.714 273.268 354.302 272.716 355.047 272.321C355.797 271.925 356.638 271.727 357.57 271.727C358.508 271.727 359.339 271.925 360.063 272.321C360.786 272.716 361.354 273.25 361.766 273.922C362.177 274.594 362.383 275.341 362.383 276.164C362.383 276.753 362.276 277.328 362.063 277.891C361.854 278.448 361.49 279.071 360.969 279.758C360.453 280.44 359.737 281.274 358.82 282.258L355.227 286.102V286.227H362.664V287.946H352.57Z" fill="white"/>
<path d="M276.563 350.086V351.805H269.562V350.086H276.563ZM280.057 358.946V342.946H285.463C286.713 342.946 287.739 343.159 288.541 343.586C289.343 344.008 289.937 344.589 290.322 345.328C290.708 346.068 290.9 346.909 290.9 347.852C290.9 348.795 290.708 349.63 290.322 350.36C289.937 351.089 289.346 351.662 288.549 352.078C287.752 352.49 286.734 352.696 285.494 352.696H281.119V350.946H285.432C286.286 350.946 286.973 350.821 287.494 350.571C288.02 350.321 288.4 349.966 288.635 349.508C288.874 349.045 288.994 348.492 288.994 347.852C288.994 347.211 288.874 346.651 288.635 346.172C288.395 345.693 288.012 345.323 287.486 345.063C286.96 344.797 286.265 344.664 285.4 344.664H281.994V358.946H280.057ZM287.588 351.758L291.525 358.946H289.275L285.4 351.758H287.588ZM299.535 342.196L294.379 361.352H292.691L297.848 342.196H299.535ZM301.689 358.946V357.539L306.971 351.758C307.59 351.081 308.101 350.492 308.502 349.992C308.903 349.487 309.2 349.013 309.393 348.571C309.59 348.123 309.689 347.654 309.689 347.164C309.689 346.602 309.554 346.115 309.283 345.703C309.018 345.292 308.653 344.974 308.189 344.75C307.726 344.526 307.205 344.414 306.627 344.414C306.012 344.414 305.476 344.542 305.018 344.797C304.564 345.047 304.213 345.399 303.963 345.852C303.718 346.305 303.596 346.836 303.596 347.446H301.752C301.752 346.508 301.968 345.685 302.4 344.977C302.833 344.268 303.421 343.716 304.166 343.321C304.916 342.925 305.757 342.727 306.689 342.727C307.627 342.727 308.458 342.925 309.182 343.321C309.906 343.716 310.473 344.25 310.885 344.922C311.296 345.594 311.502 346.341 311.502 347.164C311.502 347.753 311.395 348.328 311.182 348.891C310.973 349.448 310.609 350.071 310.088 350.758C309.572 351.44 308.856 352.274 307.939 353.258L304.346 357.102V357.227H311.783V358.946H301.689Z" fill="white"/>
<path d="M130.563 279.086V280.805H123.562V279.086H130.563ZM134.057 287.946V271.946H139.463C140.713 271.946 141.739 272.159 142.541 272.586C143.343 273.008 143.937 273.589 144.322 274.328C144.708 275.068 144.9 275.909 144.9 276.852C144.9 277.795 144.708 278.63 144.322 279.36C143.937 280.089 143.346 280.662 142.549 281.078C141.752 281.49 140.734 281.696 139.494 281.696H135.119V279.946H139.432C140.286 279.946 140.973 279.821 141.494 279.571C142.02 279.321 142.4 278.966 142.635 278.508C142.874 278.045 142.994 277.492 142.994 276.852C142.994 276.211 142.874 275.651 142.635 275.172C142.395 274.693 142.012 274.323 141.486 274.063C140.96 273.797 140.265 273.664 139.4 273.664H135.994V287.946H134.057ZM141.588 280.758L145.525 287.946H143.275L139.4 280.758H141.588ZM153.535 271.196L148.379 290.352H146.691L151.848 271.196H153.535ZM155.689 287.946V286.539L160.971 280.758C161.59 280.081 162.101 279.492 162.502 278.992C162.903 278.487 163.2 278.013 163.393 277.571C163.59 277.123 163.689 276.654 163.689 276.164C163.689 275.602 163.554 275.115 163.283 274.703C163.018 274.292 162.653 273.974 162.189 273.75C161.726 273.526 161.205 273.414 160.627 273.414C160.012 273.414 159.476 273.542 159.018 273.797C158.564 274.047 158.213 274.399 157.963 274.852C157.718 275.305 157.596 275.836 157.596 276.446H155.752C155.752 275.508 155.968 274.685 156.4 273.977C156.833 273.268 157.421 272.716 158.166 272.321C158.916 271.925 159.757 271.727 160.689 271.727C161.627 271.727 162.458 271.925 163.182 272.321C163.906 272.716 164.473 273.25 164.885 273.922C165.296 274.594 165.502 275.341 165.502 276.164C165.502 276.753 165.395 277.328 165.182 277.891C164.973 278.448 164.609 279.071 164.088 279.758C163.572 280.44 162.856 281.274 161.939 282.258L158.346 286.102V286.227H165.783V287.946H155.689Z" fill="white"/>
<path d="M278.563 450.086V451.805H271.562V450.086H278.563ZM282.057 458.946V442.946H287.463C288.713 442.946 289.739 443.159 290.541 443.586C291.343 444.008 291.937 444.589 292.322 445.328C292.708 446.068 292.9 446.909 292.9 447.852C292.9 448.795 292.708 449.63 292.322 450.36C291.937 451.089 291.346 451.662 290.549 452.078C289.752 452.49 288.734 452.696 287.494 452.696H283.119V450.946H287.432C288.286 450.946 288.973 450.821 289.494 450.571C290.02 450.321 290.4 449.966 290.635 449.508C290.874 449.045 290.994 448.492 290.994 447.852C290.994 447.211 290.874 446.651 290.635 446.172C290.395 445.693 290.012 445.323 289.486 445.063C288.96 444.797 288.265 444.664 287.4 444.664H283.994V458.946H282.057ZM289.588 451.758L293.525 458.946H291.275L287.4 451.758H289.588Z" fill="white"/>
<path d="M40.5625 279.086V280.805H33.5625V279.086H40.5625ZM44.0566 287.946V271.946H49.4629C50.7129 271.946 51.7389 272.159 52.541 272.586C53.3431 273.008 53.9368 273.589 54.3223 274.328C54.7077 275.068 54.9004 275.909 54.9004 276.852C54.9004 277.795 54.7077 278.63 54.3223 279.36C53.9368 280.089 53.3457 280.662 52.5488 281.078C51.752 281.49 50.7337 281.696 49.4941 281.696H45.1191V279.946H49.4316C50.2858 279.946 50.9733 279.821 51.4941 279.571C52.0202 279.321 52.4004 278.966 52.6348 278.508C52.8743 278.045 52.9941 277.492 52.9941 276.852C52.9941 276.211 52.8743 275.651 52.6348 275.172C52.3952 274.693 52.0124 274.323 51.4863 274.063C50.9603 273.797 50.265 273.664 49.4004 273.664H45.9941V287.946H44.0566ZM51.5879 280.758L55.5254 287.946H53.2754L49.4004 280.758H51.5879Z" fill="white"/>
<path d="M442.938 287.946V271.946H448.344C449.594 271.946 450.62 272.159 451.422 272.586C452.224 273.008 452.818 273.589 453.203 274.328C453.589 275.068 453.781 275.909 453.781 276.852C453.781 277.795 453.589 278.63 453.203 279.36C452.818 280.089 452.227 280.662 451.43 281.078C450.633 281.49 449.615 281.696 448.375 281.696H444V279.946H448.313C449.167 279.946 449.854 279.821 450.375 279.571C450.901 279.321 451.281 278.966 451.516 278.508C451.755 278.045 451.875 277.492 451.875 276.852C451.875 276.211 451.755 275.651 451.516 275.172C451.276 274.693 450.893 274.323 450.367 274.063C449.841 273.797 449.146 273.664 448.281 273.664H444.875V287.946H442.938ZM450.469 280.758L454.406 287.946H452.156L448.281 280.758H450.469Z" fill="white"/>
</svg>
